# xmcd
#
# Track frame offsets: 
#        300
#        40913
#        46259
#        87476
#        118869
#        157352
#        189777
#        226390
#        263191
#        298870
#        329805
#
# Disc length: 4712 seconds
#
# Revision: 1
# Processed by: cddbd v1.5.2PL0 Copyright (c) Steve Scherf et al.
# Submitted via: ExactAudioCopy v0.99pb5
#
DISCID=a812640b
DTITLE=Kosma - New Aspects
DYEAR=2005
DGENRE=Lo-Fi
TTITLE0=Kioku Kouka
TTITLE1=Augenblicke
TTITLE2=Odessa
TTITLE3=Aspekte
TTITLE4=Flow feat. Erk
TTITLE5=Small Swinging Istanbul
TTITLE6=Heliocentric
TTITLE7=Effatholar City
TTITLE8=Odessa (Black Sea Version)
TTITLE9=La Seule Fleur Dans Le Jardin (For Karen)
TTITLE10=Blickpunkte
EXTD=Infracom IC 118-2\nwww.infracom-records.de\nfor zazzi is a specia
EXTD=l remark - in love to you
EXTT0=
EXTT1=
EXTT2=
EXTT3=
EXTT4=
EXTT5=
EXTT6=
EXTT7=
EXTT8=
EXTT9=
EXTT10=
PLAYORDER=
